# WaveFront *.obj file (generated by Autodesk ATF)

mtllib kougeki.mtl

g ボディ1

v -15.000000 20.000000 0.000000
v -10.000000 13.333333 0.000000
v -5.000000 6.666667 0.000000
v 0.000000 0.000000 0.000000
v 0.000000 0.000000 5.000000
v -5.000000 6.666667 5.000000
v -10.000000 13.333333 5.000000
v -15.000000 20.000000 5.000000
v 15.000000 20.000000 0.000000
v 5.000000 20.000000 0.000000
v -5.000000 20.000000 0.000000
v -5.000000 20.000000 5.000000
v 5.000000 20.000000 5.000000
v 15.000000 20.000000 5.000000
v 5.000000 6.666667 0.000000
v 10.000000 13.333333 0.000000
v 10.000000 13.333333 5.000000
v 5.000000 6.666667 5.000000
v 5.000000 10.000000 5.000000
v -5.000000 10.000000 5.000000
v 5.000000 10.000000 0.000000
v -5.000000 10.000000 0.000000
vt 0.000000 0.000000 0.000000
vt 8.333333 0.000000 0.000000
vt 0.000000 5.000000 0.000000
vt 8.333333 5.000000 0.000000
vt 16.666667 0.000000 0.000000
vt 16.666667 5.000000 0.000000
vt 25.000000 0.000000 0.000000
vt 25.000000 5.000000 0.000000
vt 0.000000 0.000000 0.000000
vt 10.000000 0.000000 0.000000
vt 0.000000 5.000000 0.000000
vt 10.000000 5.000000 0.000000
vt 20.000000 0.000000 0.000000
vt 20.000000 5.000000 0.000000
vt 30.000000 0.000000 0.000000
vt 30.000000 5.000000 0.000000
vt 0.000000 0.000000 0.000000
vt 8.333333 0.000000 0.000000
vt 0.000000 5.000000 0.000000
vt 8.333333 5.000000 0.000000
vt 16.666667 0.000000 0.000000
vt 16.666667 5.000000 0.000000
vt 25.000000 0.000000 0.000000
vt 25.000000 5.000000 0.000000
vt 0.000000 -10.000000 0.000000
vt 5.000000 -3.333333 0.000000
vt -5.000000 -3.333333 0.000000
vt -5.000000 0.000000 0.000000
vt -10.000000 3.333333 0.000000
vt -5.000000 10.000000 0.000000
vt -15.000000 10.000000 0.000000
vt 5.000000 0.000000 0.000000
vt 10.000000 3.333333 0.000000
vt 5.000000 10.000000 0.000000
vt 15.000000 10.000000 0.000000
vt -15.000000 10.000000 0.000000
vt -10.000000 3.333333 0.000000
vt -5.000000 10.000000 0.000000
vt -5.000000 0.000000 0.000000
vt 5.000000 0.000000 0.000000
vt 5.000000 -3.333333 0.000000
vt 10.000000 3.333333 0.000000
vt -5.000000 -3.333333 0.000000
vt -0.000000 -10.000000 0.000000
vt 15.000000 10.000000 0.000000
vt 5.000000 10.000000 0.000000
vn -0.800000 -0.600000 0.000000
vn -0.800000 -0.600000 0.000000
vn -0.800000 -0.600000 0.000000
vn -0.800000 -0.600000 0.000000
vn -0.800000 -0.600000 0.000000
vn -0.800000 -0.600000 0.000000
vn -0.800000 -0.600000 0.000000
vn -0.800000 -0.600000 0.000000
vn 0.000000 1.000000 -0.000000
vn 0.000000 1.000000 -0.000000
vn 0.000000 1.000000 -0.000000
vn 0.000000 1.000000 -0.000000
vn 0.000000 1.000000 -0.000000
vn 0.000000 1.000000 -0.000000
vn 0.000000 1.000000 -0.000000
vn 0.000000 1.000000 -0.000000
vn 0.800000 -0.600000 0.000000
vn 0.800000 -0.600000 0.000000
vn 0.800000 -0.600000 0.000000
vn 0.800000 -0.600000 0.000000
vn 0.800000 -0.600000 0.000000
vn 0.800000 -0.600000 0.000000
vn 0.800000 -0.600000 0.000000
vn 0.800000 -0.600000 0.000000
vn 0.000000 0.000000 1.000000
vn 0.000000 0.000000 1.000000
vn 0.000000 0.000000 1.000000
vn 0.000000 0.000000 1.000000
vn 0.000000 0.000000 1.000000
vn 0.000000 0.000000 1.000000
vn 0.000000 0.000000 1.000000
vn 0.000000 0.000000 1.000000
vn 0.000000 0.000000 1.000000
vn 0.000000 0.000000 1.000000
vn 0.000000 0.000000 1.000000
vn -0.000000 0.000000 -1.000000
vn -0.000000 0.000000 -1.000000
vn -0.000000 0.000000 -1.000000
vn -0.000000 0.000000 -1.000000
vn -0.000000 0.000000 -1.000000
vn -0.000000 0.000000 -1.000000
vn -0.000000 0.000000 -1.000000
vn -0.000000 0.000000 -1.000000
vn -0.000000 0.000000 -1.000000
vn -0.000000 0.000000 -1.000000
vn -0.000000 0.000000 -1.000000
usemtl パウダー_コート(青)
f 1/1/1 2/2/2 8/3/3
f 8/3/3 2/2/2 7/4/4
f 7/4/4 2/2/2 3/5/5
f 7/4/4 3/5/5 6/6/6
f 6/6/6 3/5/5 4/7/7
f 6/6/6 4/7/7 5/8/8
f 9/9/9 10/10/10 14/11/11
f 14/11/11 10/10/10 13/12/12
f 13/12/12 10/10/10 11/13/13
f 13/12/12 11/13/13 12/14/14
f 12/14/14 11/13/13 1/15/15
f 12/14/14 1/15/15 8/16/16
f 4/17/17 15/18/18 5/19/19
f 5/19/19 15/18/18 18/20/20
f 18/20/20 15/18/18 16/21/21
f 18/20/20 16/21/21 17/22/22
f 17/22/22 16/21/21 9/23/23
f 17/22/22 9/23/23 14/24/24
f 5/25/25 18/26/26 6/27/27
f 6/27/27 18/26/26 20/28/28
f 6/27/27 20/28/28 7/29/29
f 7/29/29 20/28/28 12/30/30
f 7/29/29 12/30/30 8/31/31
f 20/28/28 18/26/26 19/32/32
f 19/32/32 18/26/26 17/33/33
f 19/32/32 17/33/33 13/34/34
f 13/34/34 17/33/33 14/35/35
f 13/34/34 12/30/30 19/32/32
f 19/32/32 12/30/30 20/28/28
f 9/36/36 16/37/37 10/38/38
f 10/38/38 16/37/37 21/39/39
f 10/38/38 21/39/39 22/40/40
f 22/40/40 21/39/39 3/41/41
f 22/40/40 3/41/41 2/42/42
f 16/37/37 15/43/43 21/39/39
f 21/39/39 15/43/43 3/41/41
f 15/43/43 4/44/44 3/41/41
f 1/45/45 11/46/46 2/42/42
f 2/42/42 11/46/46 22/40/40
f 11/46/46 10/38/38 22/40/40
# 22 vertices
# 46 texture params
# 46 normals
# 40 facets

# 1 groups
