# WaveFront *.obj file (generated by Autodesk ATF)

mtllib testBody2.mtl

g ボディ1

v 20.000000 20.000000 20.000000
v 10.000000 20.000000 20.000000
v 0.000000 20.000000 20.000000
v 0.000000 10.000000 20.000000
v 0.000000 0.000000 20.000000
v 10.000000 0.000000 20.000000
v 20.000000 0.000000 20.000000
v 20.000000 10.000000 20.000000
v 10.000000 10.000000 20.000000
v 0.000000 20.000000 0.000000
v 10.000000 20.000000 0.000000
v 20.000000 20.000000 0.000000
v 20.000000 10.000000 0.000000
v 20.000000 0.000000 0.000000
v 10.000000 0.000000 0.000000
v 0.000000 0.000000 0.000000
v 0.000000 10.000000 0.000000
v 10.000000 10.000000 0.000000
v 20.000000 0.000000 10.000000
v 20.000000 20.000000 10.000000
v 20.000000 10.000000 10.000000
v 0.000000 0.000000 10.000000
v 10.000000 0.000000 10.000000
v 0.000000 20.000000 10.000000
v 0.000000 10.000000 10.000000
v 10.000000 20.000000 10.000000
vt 0.000000 -10.000000 0.000000
vt 10.000000 -10.000000 0.000000
vt 0.000000 0.000000 0.000000
vt 10.000000 0.000000 0.000000
vt 0.000000 10.000000 0.000000
vt 10.000000 10.000000 0.000000
vt -10.000000 10.000000 0.000000
vt -10.000000 0.000000 0.000000
vt -10.000000 -10.000000 0.000000
vt -0.000000 10.000000 0.000000
vt -10.000000 10.000000 0.000000
vt 0.000000 0.000000 0.000000
vt -10.000000 0.000000 0.000000
vt -0.000000 -10.000000 0.000000
vt -10.000000 -10.000000 0.000000
vt 10.000000 -10.000000 0.000000
vt 10.000000 0.000000 0.000000
vt 10.000000 10.000000 0.000000
vt -10.000000 -10.000000 0.000000
vt -0.000000 -10.000000 0.000000
vt -10.000000 0.000000 0.000000
vt 0.000000 0.000000 0.000000
vt -10.000000 10.000000 0.000000
vt -0.000000 10.000000 0.000000
vt 10.000000 0.000000 0.000000
vt 10.000000 10.000000 0.000000
vt 10.000000 -10.000000 0.000000
vt 10.000000 10.000000 0.000000
vt -0.000000 10.000000 0.000000
vt 10.000000 0.000000 0.000000
vt 0.000000 0.000000 0.000000
vt 10.000000 -10.000000 0.000000
vt -0.000000 -10.000000 0.000000
vt -10.000000 0.000000 0.000000
vt -10.000000 -10.000000 0.000000
vt -10.000000 10.000000 0.000000
vt 10.000000 10.000000 0.000000
vt -0.000000 10.000000 0.000000
vt 10.000000 0.000000 0.000000
vt 0.000000 0.000000 0.000000
vt 10.000000 -10.000000 0.000000
vt -0.000000 -10.000000 0.000000
vt -10.000000 0.000000 0.000000
vt -10.000000 -10.000000 0.000000
vt -10.000000 10.000000 0.000000
vt -10.000000 -10.000000 0.000000
vt -0.000000 -10.000000 0.000000
vt -10.000000 0.000000 0.000000
vt 0.000000 0.000000 0.000000
vt -10.000000 10.000000 0.000000
vt -0.000000 10.000000 0.000000
vt 10.000000 0.000000 0.000000
vt 10.000000 10.000000 0.000000
vt 10.000000 -10.000000 0.000000
vn 0.000000 0.000000 1.000000
vn 0.000000 0.000000 1.000000
vn 0.000000 0.000000 1.000000
vn 0.000000 0.000000 1.000000
vn 0.000000 0.000000 1.000000
vn 0.000000 0.000000 1.000000
vn 0.000000 0.000000 1.000000
vn 0.000000 0.000000 1.000000
vn 0.000000 0.000000 1.000000
vn -0.000000 -0.000000 -1.000000
vn -0.000000 -0.000000 -1.000000
vn -0.000000 -0.000000 -1.000000
vn -0.000000 -0.000000 -1.000000
vn -0.000000 -0.000000 -1.000000
vn -0.000000 -0.000000 -1.000000
vn -0.000000 -0.000000 -1.000000
vn -0.000000 -0.000000 -1.000000
vn -0.000000 -0.000000 -1.000000
vn 1.000000 -0.000000 -0.000000
vn 1.000000 -0.000000 -0.000000
vn 1.000000 -0.000000 -0.000000
vn 1.000000 -0.000000 -0.000000
vn 1.000000 -0.000000 -0.000000
vn 1.000000 -0.000000 -0.000000
vn 1.000000 -0.000000 -0.000000
vn 1.000000 -0.000000 -0.000000
vn 1.000000 -0.000000 -0.000000
vn -0.000000 -1.000000 -0.000000
vn -0.000000 -1.000000 -0.000000
vn -0.000000 -1.000000 -0.000000
vn -0.000000 -1.000000 -0.000000
vn -0.000000 -1.000000 -0.000000
vn -0.000000 -1.000000 -0.000000
vn -0.000000 -1.000000 -0.000000
vn -0.000000 -1.000000 -0.000000
vn -0.000000 -1.000000 -0.000000
vn -1.000000 -0.000000 -0.000000
vn -1.000000 -0.000000 -0.000000
vn -1.000000 -0.000000 -0.000000
vn -1.000000 -0.000000 -0.000000
vn -1.000000 -0.000000 -0.000000
vn -1.000000 -0.000000 -0.000000
vn -1.000000 -0.000000 -0.000000
vn -1.000000 -0.000000 -0.000000
vn -1.000000 -0.000000 -0.000000
vn -0.000000 1.000000 -0.000000
vn -0.000000 1.000000 -0.000000
vn -0.000000 1.000000 -0.000000
vn -0.000000 1.000000 -0.000000
vn -0.000000 1.000000 -0.000000
vn -0.000000 1.000000 -0.000000
vn -0.000000 1.000000 -0.000000
vn -0.000000 1.000000 -0.000000
vn -0.000000 1.000000 -0.000000
usemtl 鋼_-_サテン
f 8/1/1 1/2/2 9/3/3
f 9/3/3 1/2/2 2/4/4
f 9/3/3 2/4/4 4/5/5
f 4/5/5 2/4/4 3/6/6
f 4/5/5 5/7/7 9/3/3
f 9/3/3 5/7/7 6/8/8
f 9/3/3 6/8/8 8/1/1
f 8/1/1 6/8/8 7/9/9
f 17/10/10 10/11/11 18/12/12
f 18/12/12 10/11/11 11/13/13
f 18/12/12 11/13/13 13/14/14
f 13/14/14 11/13/13 12/15/15
f 13/14/14 14/16/16 18/12/12
f 18/12/12 14/16/16 15/17/17
f 18/12/12 15/17/17 17/10/10
f 17/10/10 15/17/17 16/18/18
f 7/19/19 19/20/20 8/21/21
f 8/21/21 19/20/20 21/22/22
f 8/21/21 21/22/22 1/23/23
f 1/23/23 21/22/22 20/24/24
f 20/24/24 21/22/22 13/25/25
f 20/24/24 13/25/25 12/26/26
f 19/20/20 14/27/27 21/22/22
f 21/22/22 14/27/27 13/25/25
f 5/28/28 22/29/29 6/30/30
f 6/30/30 22/29/29 23/31/31
f 6/30/30 23/31/31 7/32/32
f 7/32/32 23/31/31 19/33/33
f 19/33/33 23/31/31 15/34/34
f 19/33/33 15/34/34 14/35/35
f 22/29/29 16/36/36 23/31/31
f 23/31/31 16/36/36 15/34/34
f 3/37/37 24/38/38 4/39/39
f 4/39/39 24/38/38 25/40/40
f 4/39/39 25/40/40 5/41/41
f 5/41/41 25/40/40 22/42/42
f 22/42/42 25/40/40 17/43/43
f 22/42/42 17/43/43 16/44/44
f 24/38/38 10/45/45 25/40/40
f 25/40/40 10/45/45 17/43/43
f 1/46/46 20/47/47 2/48/48
f 2/48/48 20/47/47 26/49/49
f 2/48/48 26/49/49 3/50/50
f 3/50/50 26/49/49 24/51/51
f 24/51/51 26/49/49 11/52/52
f 24/51/51 11/52/52 10/53/53
f 20/47/47 12/54/54 26/49/49
f 26/49/49 12/54/54 11/52/52
# 26 vertices
# 54 texture params
# 54 normals
# 48 facets

# 1 groups
